<?xml version="1.0" encoding="UTF-8"?>
<svg width="560px" height="82px" viewBox="0 0 560 82" version="1.1" xmlns="http://www.w3.org/2000/svg" xmlns:xlink="http://www.w3.org/1999/xlink">
    <title>formulus</title>
    <g id="Page-1" stroke="none" stroke-width="1" fill="none" fill-rule="evenodd">
        <g id="Group-5" fill="#000000">
            <path d="M375.800246,7.63096364 L367.219807,56.9032794 L378.367514,56.9032794 L386.934224,7.63096364 L405.907292,7.63096364 L396.983635,59.1273293 C396.600724,61.7000506 395.759078,64.1831404 394.49874,66.4584568 C393.454197,68.254159 392.000781,69.7781294 390.256571,70.9065567 C388.451996,72.01636 386.445705,72.7582208 384.353228,73.0894205 C382.198207,73.4517983 380.019027,73.6483322 377.834862,73.6775037 L376.898542,73.6797547 L362.771707,73.6797547 C360.37433,73.7055062 357.979767,73.5078743 355.619052,73.0894205 C353.751492,72.8041605 351.985754,72.0534857 350.484517,70.9065567 C349.125531,69.7645989 348.191902,68.1972622 347.834878,66.4584568 C347.423289,64.2338083 347.420359,61.9545425 347.82442,59.7319902 L347.944707,59.1273293 L356.895822,7.63096364 L375.800246,7.63096364 Z" id="Path" fill-rule="nonzero"></path>
            <path d="M214.553414,13.9336704 C214.108208,12.2508531 213.132758,10.7603446 211.774638,9.68764136 C210.280608,8.5812716 208.544574,7.85533785 206.713775,7.57140966 C204.42206,7.17070409 202.099212,6.98001103 199.773545,7.00165496 L184.362747,7.00165496 C181.988369,6.98721472 179.617113,7.17782629 177.274853,7.57140966 C175.239322,7.89958434 173.284617,8.61788112 171.51594,9.68764136 C169.807731,10.7444723 168.375895,12.2007108 167.341063,13.9336704 C166.11003,16.0671687 165.281605,18.4130582 164.897887,20.8521202 L158.387228,58.5237577 C157.894592,60.8922796 157.871778,63.3360268 158.320107,65.7135193 C158.663598,67.4318677 159.560461,68.9869214 160.870675,70.1359009 C162.31379,71.2920724 164.022069,72.0619047 165.83757,72.3742229 C168.188342,72.8126193 170.575381,73.0215865 172.965736,72.99824 L188.376535,72.99824 C190.833363,73.0148035 193.286606,72.8059407 195.706061,72.3742229 C197.76169,72.0050256 199.729467,71.2455195 201.505247,70.1359009 C203.218774,69.0148562 204.644916,67.4992931 205.666699,65.7135193 C206.899516,63.4871614 207.714188,61.0495703 208.069603,58.5237577 L214.647383,20.8521202 C215.147413,18.569812 215.115242,16.2012503 214.553414,13.9336704 L214.553414,13.9336704 Z M190.042491,57 L177,57 L182.957509,24 L196,24 L190.042491,57 Z" id="Shape" fill-rule="nonzero"></path>
            <polygon id="Path" fill-rule="nonzero" points="157.579965 7 154.665312 24.174051 129.934413 24.174051 127.721287 36.879828 152.334845 36.879828 149.201912 51.4868989 125.212847 51.4868989 121.450075 72.8834899 102.531922 72.8834899 111.01626 24.174051 113.634975 6.87448453"></polygon>
            <polygon id="Path" fill-rule="nonzero" points="302.241854 7.63096364 312.359909 33.4958405 330.728914 7.63096364 348.013351 7.63096364 336.645985 72.8834899 317.672917 72.8834899 323.644903 38.7676625 307.513676 61.9828996 298.974423 39.2344384 293.112267 72.8834899 276.747653 72.8834899 288.115019 7.63096364"></polygon>
            <path d="M273.618637,14.5265309 C273.200916,12.7589417 272.222178,11.1720845 270.827273,10.0008065 C269.319152,8.81363773 267.541151,8.01278725 265.649293,7.66853141 C263.25961,7.19858858 260.827537,6.97528354 258.391748,7.00216709 L226.500418,7.00216709 L215,73 L234.246452,73 L238.168318,50.4269086 L240.834071,50.4269086 L248.175357,73 L269.264109,73 L259.647862,47.5948603 L260.206134,47.5948603 C261.601309,47.1638515 262.95194,46.6013698 264.239655,45.9150669 C265.481608,45.2594041 266.596813,44.3898458 267.533464,43.3467877 C268.513931,42.2367955 269.31443,40.9815448 269.906123,39.6262536 C270.592801,38.0412655 271.093888,36.3829636 271.399502,34.6840516 L273.618637,21.8565384 C274.127121,19.4393772 274.127121,16.9436921 273.618637,14.5265309 L273.618637,14.5265309 Z M253.985085,25.9583728 L252.693447,32.9888634 C252.579951,33.4279836 252.428232,33.8565077 252.239999,34.2696117 C252.057256,34.6397891 251.78889,34.9619144 251.456772,35.2097355 C251.126819,35.4735821 250.749035,35.6724435 250.343765,35.7956097 C249.898804,35.9322814 249.4355,36.0011911 248.969682,36 L241,36 L243.280978,23.0017517 L251.2644,23.0017517 C251.73107,22.9878238 252.196473,23.0570457 252.638483,23.2061264 C252.977488,23.3310827 253.28305,23.531519 253.531637,23.7920006 C253.75616,24.0581752 253.907612,24.3772966 253.971344,24.7184994 C254.023177,25.1319262 254.004598,25.5510501 253.916381,25.9583728 L253.985085,25.9583728 Z" id="Shape" fill-rule="nonzero"></path>
            <polygon id="Path" fill-rule="nonzero" points="433.694187 7.63096364 425.209849 56.3404026 445.52833 56.3404026 442.645302 72.8834899 403.39494 72.8834899 414.762306 7.63096364"></polygon>
            <path d="M478.120271,7.63096364 L469.539832,56.9032794 L480.67381,56.9032794 L489.254249,7.63096364 L508.241046,7.63096364 L499.289931,59.1273293 C498.902743,61.7009361 498.056431,64.1840715 496.791307,66.4584568 C495.754409,68.2598879 494.299433,69.7854939 492.549138,70.9065567 C490.750639,72.0186203 488.748362,72.7607231 486.659524,73.0894205 C484.500519,73.4522532 482.317316,73.6488446 480.129145,73.6776745 L465.078003,73.6797547 C462.680592,73.7064659 460.28594,73.5088266 457.925349,73.0894205 C456.057136,72.8064579 454.290848,72.0555492 452.790814,70.9065567 C451.427635,69.7681693 450.493062,68.1992491 450.141174,66.4584568 C449.729585,64.2338083 449.726655,61.9545425 450.130716,59.7319902 L450.251004,59.1273293 L459.188389,7.63096364 L478.120271,7.63096364 Z" id="Path" fill-rule="nonzero"></path>
            <path d="M545.102614,6.87588497 C547.360888,6.85663881 549.616488,7.03580052 551.843407,7.41130439 C553.656463,7.67959561 555.376596,8.38649969 556.854384,9.47060987 C558.21049,10.5449204 559.175366,12.0356542 559.600124,13.7127792 C560.092279,15.8818044 560.130137,18.1271698 559.713699,20.3079396 L559.600124,20.8517048 L558.845046,25.1762463 L540.668243,27.4689398 L541.697896,21.3596668 L531.016964,21.3596668 L529.05376,32.7270331 L540.709429,32.7270331 C543.081548,32.7081491 545.451107,32.8872436 547.79344,33.2624525 C549.679297,33.5264771 551.476167,34.2320543 553.037804,35.321758 C554.474747,36.3565807 555.519759,37.8466896 556.003204,39.5501986 C556.496651,41.7190789 556.534608,43.9647006 556.117076,46.1453873 L556.003204,46.6891242 L553.861527,59.0449571 C553.468037,61.6189534 552.61718,64.1017824 551.349174,66.3760846 C550.304764,68.1792988 548.851755,69.7122476 547.107005,70.8516418 C545.347362,71.9543399 543.388259,72.7006649 541.340949,73.0482344 C539.261551,73.4002719 537.158624,73.5919981 535.050738,73.6219247 L534.147109,73.6248399 L520.116374,73.6248399 C517.742347,73.6504102 515.371005,73.457394 513.032363,73.0482344 C511.211762,72.764664 509.497803,72.0071129 508.062573,70.8516418 C506.748583,69.6937837 505.863442,68.1266486 505.55022,66.403542 C505.165369,64.179013 505.180314,61.905348 505.592656,59.6890776 L505.714964,59.0861432 L506.456314,54.6655008 L524.962606,52.2355203 L523.740752,59.1822441 L535.684724,59.1822441 L537.771486,47.1009853 L526.129546,47.1009853 C523.726926,47.1293919 521.327127,46.92711 518.963163,46.4969224 C517.110104,46.2021787 515.362261,45.4416305 513.883543,44.2866012 C512.542564,43.1316779 511.616739,41.5693484 511.247632,39.8385013 C510.832283,37.5999931 510.840855,35.3052783 511.270911,33.0732725 L511.398648,32.4661877 L513.403038,20.9066196 C513.743909,18.392645 514.579111,15.9710264 515.860476,13.7814227 C516.936534,12.032293 518.408431,10.5603969 520.15756,9.48433857 C521.917674,8.43770397 523.860268,7.73427075 525.882429,7.41130439 C527.827504,7.09502925 529.792284,6.91826797 531.761736,6.8821931 L532.746781,6.87588497 L545.102614,6.87588497 Z" id="Path" fill-rule="nonzero"></path>
            <g id="Group-4-Copy">
                <path d="M79,0 C80.6568542,-3.04359188e-16 82,1.34314575 82,3 L82,79 C82,80.6568542 80.6568542,82 79,82 L3,82 C1.34314575,82 2.02906125e-16,80.6568542 0,79 L0,3 C-2.02906125e-16,1.34314575 1.34314575,3.04359188e-16 3,0 L79,0 Z M69,55 L14,55 C12.8954305,55 12,55.8954305 12,57 L12,57 L12,63 C12,64.1045695 12.8954305,65 14,65 L14,65 L69,65 C70.1045695,65 71,64.1045695 71,63 L71,63 L71,57 C71,55.8954305 70.1045695,55 69,55 L69,55 Z M69,36 L14,36 C12.8954305,36 12,36.8954305 12,38 L12,38 L12,44 C12,45.1045695 12.8954305,46 14,46 L14,46 L69,46 C70.1045695,46 71,45.1045695 71,44 L71,44 L71,38 C71,36.8954305 70.1045695,36 69,36 L69,36 Z M69,17 L14,17 C12.8954305,17 12,17.8954305 12,19 L12,19 L12,25 C12,26.1045695 12.8954305,27 14,27 L14,27 L69,27 C70.1045695,27 71,26.1045695 71,25 L71,25 L71,19 C71,17.8954305 70.1045695,17 69,17 L69,17 Z" id="logo"></path>
            </g>
        </g>
    </g>
</svg>