<?xml version="1.0" encoding="UTF-8"?>
<svg width="560px" height="82px" viewBox="0 0 560 82" version="1.1" xmlns="http://www.w3.org/2000/svg" xmlns:xlink="http://www.w3.org/1999/xlink">
    <title>formulus</title>
    <g id="Page-1" stroke="none" stroke-width="1" fill="none" fill-rule="evenodd">
        <g id="Group-5" fill="#000000">
            <path d="M361.800246,8.63096364 L353.219807,57.9032794 L364.367514,57.9032794 L372.934224,8.63096364 L391.907292,8.63096364 L382.983635,60.1273293 C382.600724,62.7000506 381.759078,65.1831404 380.49874,67.4584568 C379.454197,69.254159 378.000781,70.7781294 376.256571,71.9065567 C374.451996,73.01636 372.445705,73.7582208 370.353228,74.0894205 C368.198207,74.4517983 366.019027,74.6483322 363.834862,74.6775037 L362.898542,74.6797547 L348.771707,74.6797547 C346.37433,74.7055062 343.979767,74.5078743 341.619052,74.0894205 C339.751492,73.8041605 337.985754,73.0534857 336.484517,71.9065567 C335.125531,70.7645989 334.191902,69.1972622 333.834878,67.4584568 C333.423289,65.2338083 333.420359,62.9545425 333.82442,60.7319902 L333.944707,60.1273293 L342.895822,8.63096364 L361.800246,8.63096364 Z" id="Path" fill-rule="nonzero"></path>
            <path d="M206.553414,14.9336704 C206.108208,13.2508531 205.132758,11.7603446 203.774638,10.6876414 C202.280608,9.5812716 200.544574,8.85533785 198.713775,8.57140966 C196.42206,8.17070409 194.099212,7.98001103 191.773545,8.00165496 L176.362747,8.00165496 C173.988369,7.98721472 171.617113,8.17782629 169.274853,8.57140966 C167.239322,8.89958434 165.284617,9.61788112 163.51594,10.6876414 C161.807731,11.7444723 160.375895,13.2007108 159.341063,14.9336704 C158.11003,17.0671687 157.281605,19.4130582 156.897887,21.8521202 L150.387228,59.5237577 C149.894592,61.8922796 149.871778,64.3360268 150.320107,66.7135193 C150.663598,68.4318677 151.560461,69.9869214 152.870675,71.1359009 C154.31379,72.2920724 156.022069,73.0619047 157.83757,73.3742229 C160.188342,73.8126193 162.575381,74.0215865 164.965736,73.99824 L180.376535,73.99824 C182.833363,74.0148035 185.286606,73.8059407 187.706061,73.3742229 C189.76169,73.0050256 191.729467,72.2455195 193.505247,71.1359009 C195.218774,70.0148562 196.644916,68.4992931 197.666699,66.7135193 C198.899516,64.4871614 199.714188,62.0495703 200.069603,59.5237577 L206.647383,21.8521202 C207.147413,19.569812 207.115242,17.2012503 206.553414,14.9336704 L206.553414,14.9336704 Z M182.042491,58 L169,58 L174.957509,25 L188,25 L182.042491,58 Z" id="Shape" fill-rule="nonzero"></path>
            <polygon id="Path" fill-rule="nonzero" points="152.579965 8 149.665312 25.174051 124.934413 25.174051 122.721287 37.879828 147.334845 37.879828 144.201912 52.4868989 120.212847 52.4868989 116.450075 73.8834899 97.531922 73.8834899 106.01626 25.174051 108.634975 7.87448453"></polygon>
            <polygon id="Path" fill-rule="nonzero" points="288.241854 8.63096364 298.359909 34.4958405 316.728914 8.63096364 334.013351 8.63096364 322.645985 73.8834899 303.672917 73.8834899 309.644903 39.7676625 293.513676 62.9828996 284.974423 40.2344384 279.112267 73.8834899 262.747653 73.8834899 274.115019 8.63096364"></polygon>
            <path d="M263.618637,15.5265309 C263.200916,13.7589417 262.222178,12.1720845 260.827273,11.0008065 C259.319152,9.81363773 257.541151,9.01278725 255.649293,8.66853141 C253.25961,8.19858858 250.827537,7.97528354 248.391748,8.00216709 L216.500418,8.00216709 L205,74 L224.246452,74 L228.168318,51.4269086 L230.834071,51.4269086 L238.175357,74 L259.264109,74 L249.647862,48.5948603 L250.206134,48.5948603 C251.601309,48.1638515 252.95194,47.6013698 254.239655,46.9150669 C255.481608,46.2594041 256.596813,45.3898458 257.533464,44.3467877 C258.513931,43.2367955 259.31443,41.9815448 259.906123,40.6262536 C260.592801,39.0412655 261.093888,37.3829636 261.399502,35.6840516 L263.618637,22.8565384 C264.127121,20.4393772 264.127121,17.9436921 263.618637,15.5265309 L263.618637,15.5265309 Z M243.985085,26.9583728 L242.693447,33.9888634 C242.579951,34.4279836 242.428232,34.8565077 242.239999,35.2696117 C242.057256,35.6397891 241.78889,35.9619144 241.456772,36.2097355 C241.126819,36.4735821 240.749035,36.6724435 240.343765,36.7956097 C239.898804,36.9322814 239.4355,37.0011911 238.969682,37 L231,37 L233.280978,24.0017517 L241.2644,24.0017517 C241.73107,23.9878238 242.196473,24.0570457 242.638483,24.2061264 C242.977488,24.3310827 243.28305,24.531519 243.531637,24.7920006 C243.75616,25.0581752 243.907612,25.3772966 243.971344,25.7184994 C244.023177,26.1319262 244.004598,26.5510501 243.916381,26.9583728 L243.985085,26.9583728 Z" id="Shape" fill-rule="nonzero"></path>
            <polygon id="Path" fill-rule="nonzero" points="419.694187 8.63096364 411.209849 57.3404026 431.52833 57.3404026 428.645302 73.8834899 389.39494 73.8834899 400.762306 8.63096364"></polygon>
            <path d="M464.120271,8.63096364 L455.539832,57.9032794 L466.67381,57.9032794 L475.254249,8.63096364 L494.241046,8.63096364 L485.289931,60.1273293 C484.902743,62.7009361 484.056431,65.1840715 482.791307,67.4584568 C481.754409,69.2598879 480.299433,70.7854939 478.549138,71.9065567 C476.750639,73.0186203 474.748362,73.7607231 472.659524,74.0894205 C470.500519,74.4522532 468.317316,74.6488446 466.129145,74.6776745 L451.078003,74.6797547 C448.680592,74.7064659 446.28594,74.5088266 443.925349,74.0894205 C442.057136,73.8064579 440.290848,73.0555492 438.790814,71.9065567 C437.427635,70.7681693 436.493062,69.1992491 436.141174,67.4584568 C435.729585,65.2338083 435.726655,62.9545425 436.130716,60.7319902 L436.251004,60.1273293 L445.188389,8.63096364 L464.120271,8.63096364 Z" id="Path" fill-rule="nonzero"></path>
            <path d="M531.102614,7.87588497 C533.360888,7.85663881 535.616488,8.03580052 537.843407,8.41130439 C539.656463,8.67959561 541.376596,9.38649969 542.854384,10.4706099 C544.21049,11.5449204 545.175366,13.0356542 545.600124,14.7127792 C546.092279,16.8818044 546.130137,19.1271698 545.713699,21.3079396 L545.600124,21.8517048 L544.845046,26.1762463 L526.668243,28.4689398 L527.697896,22.3596668 L517.016964,22.3596668 L515.05376,33.7270331 L526.709429,33.7270331 C529.081548,33.7081491 531.451107,33.8872436 533.79344,34.2624525 C535.679297,34.5264771 537.476167,35.2320543 539.037804,36.321758 C540.474747,37.3565807 541.519759,38.8466896 542.003204,40.5501986 C542.496651,42.7190789 542.534608,44.9647006 542.117076,47.1453873 L542.003204,47.6891242 L539.861527,60.0449571 C539.468037,62.6189534 538.61718,65.1017824 537.349174,67.3760846 C536.304764,69.1792988 534.851755,70.7122476 533.107005,71.8516418 C531.347362,72.9543399 529.388259,73.7006649 527.340949,74.0482344 C525.261551,74.4002719 523.158624,74.5919981 521.050738,74.6219247 L520.147109,74.6248399 L506.116374,74.6248399 C503.742347,74.6504102 501.371005,74.457394 499.032363,74.0482344 C497.211762,73.764664 495.497803,73.0071129 494.062573,71.8516418 C492.748583,70.6937837 491.863442,69.1266486 491.55022,67.403542 C491.165369,65.179013 491.180314,62.905348 491.592656,60.6890776 L491.714964,60.0861432 L492.456314,55.6655008 L510.962606,53.2355203 L509.740752,60.1822441 L521.684724,60.1822441 L523.771486,48.1009853 L512.129546,48.1009853 C509.726926,48.1293919 507.327127,47.92711 504.963163,47.4969224 C503.110104,47.2021787 501.362261,46.4416305 499.883543,45.2866012 C498.542564,44.1316779 497.616739,42.5693484 497.247632,40.8385013 C496.832283,38.5999931 496.840855,36.3052783 497.270911,34.0732725 L497.398648,33.4661877 L499.403038,21.9066196 C499.743909,19.392645 500.579111,16.9710264 501.860476,14.7814227 C502.936534,13.032293 504.408431,11.5603969 506.15756,10.4843386 C507.917674,9.43770397 509.860268,8.73427075 511.882429,8.41130439 C513.827504,8.09502925 515.792284,7.91826797 517.761736,7.8821931 L518.746781,7.87588497 L531.102614,7.87588497 Z" id="Path" fill-rule="nonzero"></path>
            <g id="Group-4-Copy">
                <path d="M80,0 C81.1045695,-2.02906125e-16 82,0.8954305 82,2 L82,80 C82,81.1045695 81.1045695,82 80,82 L2,82 C0.8954305,82 1.3527075e-16,81.1045695 0,80 L0,2 C-1.3527075e-16,0.8954305 0.8954305,2.02906125e-16 2,0 L80,0 Z M71,56 L11,56 L11,66 L71,66 L71,56 Z M71,36 L11,36 L11,46 L71,46 L71,36 Z M71,16 L11,16 L11,26 L71,26 L71,16 Z" id="logo"></path>
            </g>
        </g>
    </g>
</svg>