<?xml version="1.0" encoding="UTF-8"?>
<svg width="82px" height="82px" viewBox="0 0 82 82" version="1.1" xmlns="http://www.w3.org/2000/svg" xmlns:xlink="http://www.w3.org/1999/xlink">
    <title>logo</title>
    <g id="Page-1" stroke="none" stroke-width="1" fill="none" fill-rule="evenodd">
        <g id="Group-4-Copy" fill="#000000">
            <path d="M79,0 C80.6568542,-3.04359188e-16 82,1.34314575 82,3 L82,79 C82,80.6568542 80.6568542,82 79,82 L3,82 C1.34314575,82 2.02906125e-16,80.6568542 0,79 L0,3 C-2.02906125e-16,1.34314575 1.34314575,3.04359188e-16 3,0 L79,0 Z M69,55 L14,55 C12.8954305,55 12,55.8954305 12,57 L12,57 L12,63 C12,64.1045695 12.8954305,65 14,65 L14,65 L69,65 C70.1045695,65 71,64.1045695 71,63 L71,63 L71,57 C71,55.8954305 70.1045695,55 69,55 L69,55 Z M69,36 L14,36 C12.8954305,36 12,36.8954305 12,38 L12,38 L12,44 C12,45.1045695 12.8954305,46 14,46 L14,46 L69,46 C70.1045695,46 71,45.1045695 71,44 L71,44 L71,38 C71,36.8954305 70.1045695,36 69,36 L69,36 Z M69,17 L14,17 C12.8954305,17 12,17.8954305 12,19 L12,19 L12,25 C12,26.1045695 12.8954305,27 14,27 L14,27 L69,27 C70.1045695,27 71,26.1045695 71,25 L71,25 L71,19 C71,17.8954305 70.1045695,17 69,17 L69,17 Z" id="logo"></path>
        </g>
    </g>
</svg>